PathFileType	4	(X/Y/Z)	/Users/visionmauri/Downloads/Videos/OAW05-top_Sports2D/OAW05-top_Sports2D_px_person00.trc
DataRate	CameraRate	NumFrames	NumMarkers	Units	OrigDataRate	OrigDataStartFrame	OrigNumFrames
28.0	28.0	12	22	m	28.0	818	2182
Frame#	Time	Hip			RHip			RKnee			RAnkle			RBigToe			RSmallToe			RHeel			LHip			LKnee			LAnkle			LBigToe			LSmallToe			LHeel			Neck			Head			Nose			RShoulder			RElbow			RWrist			LShoulder			LElbow			LWrist			
		X1	Y1	Z1	X2	Y2	Z2	X3	Y3	Z3	X4	Y4	Z4	X5	Y5	Z5	X6	Y6	Z6	X7	Y7	Z7	X8	Y8	Z8	X9	Y9	Z9	X10	Y10	Z10	X11	Y11	Z11	X12	Y12	Z12	X13	Y13	Z13	X14	Y14	Z14	X15	Y15	Z15	X16	Y16	Z16	X17	Y17	Z17	X18	Y18	Z18	X19	Y19	Z19	X20	Y20	Z20	X21	Y21	Z21	X22	Y22	Z22
818	29.22768061832711	538.2846659530501	479.63737333792915	0.0	523.3897113949121	480.5572075027986	0.0	523.5348729359722	537.6791491415407	0.0	523.1640158174597	584.513045974196	0.0	526.1992867207946	610.1198735407365	0.0	519.1978576708519	606.7110971811254	0.0	522.4275157980311	588.9954474772534	0.0	552.3378011589024	480.64105725133214	0.0	543.9329024290921	544.3071655987402	0.0	536.2151719771845	611.995354168395	0.0	531.987968361409	631.0941897638173	0.0	539.3143453169575	630.5423929409196	0.0	534.2823328471404	620.2755883200111	0.0	543.2103132998429	395.09480227531446	0.0	547.0948923319454	352.16505473262305	0.0	545.5926724122302	383.5987392404688	0.0	515.5185514914515	400.15190184487153	0.0	503.83922505830213	446.5028802760532	0.0	498.7433737117316	488.06391320286	0.0	571.1712851251642	402.66995304132325	0.0	577.8536471742615	450.92311802635106	0.0	581.1823201798026	493.96337631940236	0.0
819	29.26341127922971	538.5620348325934	479.24896001020204	0.0	523.5076199153305	480.120125005662	0.0	523.6332882798254	537.1195823990876	0.0	522.6140092916627	585.3237160034668	0.0	524.8331807375243	610.9102381076078	0.0	517.175919406727	607.64708019253	0.0	522.1998897435524	590.6470741688922	0.0	552.8085585324101	480.14336793703967	0.0	544.3571204967028	544.8441799001941	0.0	535.9622342600773	611.9629219279492	0.0	531.7180798486897	631.1032972311052	0.0	539.2844898845948	630.5762069709023	0.0	534.2391621355142	620.5709430401063	0.0	543.5616506506017	394.399215295432	0.0	547.0552369723996	350.99511342692006	0.0	545.959699272719	382.8463801793218	0.0	515.4360240135703	399.24137865297683	0.0	504.11752088664673	446.0629489169514	0.0	498.55742787893604	488.0720270601517	0.0	571.5326568321003	401.8413929654341	0.0	578.4844296385279	450.5452539814726	0.0	581.8593371167442	493.16060485031267	0.0
820	29.299141940132312	538.7889401511608	478.4372745376249	0.0	523.5639486196136	479.54626459882644	0.0	524.0403352388519	537.357241967694	0.0	521.69025322106	588.0184489788776	0.0	523.1144624049093	613.6810073429972	0.0	514.9916199398083	610.6505136096146	0.0	521.7676012990634	594.695802963457	0.0	553.006149117768	479.68803485227807	0.0	545.0241547238015	545.1112408646193	0.0	536.0540930238822	611.5246173036226	0.0	531.1939398693999	630.8732755937251	0.0	539.1222761553519	630.2841855440304	0.0	534.4780813374198	620.457093531213	0.0	543.9975677193647	393.2591421716842	0.0	546.8446103777504	349.62273233172925	0.0	546.0870563912672	381.84767908942547	0.0	515.3481896210476	397.854533264214	0.0	504.23617838969204	445.2241344197014	0.0	498.4797029851749	487.74036505703447	0.0	571.9893074050158	400.5626751544434	0.0	578.8744725160624	449.6337480279752	0.0	582.1913363800716	491.76163105491906	0.0
821	29.334872601034913	539.0277379773978	478.1277596600441	0.0	523.9277120824567	479.1204099251997	0.0	524.7230338008674	539.2487718642265	0.0	520.5414834909102	591.949873235134	0.0	521.6925490925563	617.509083341949	0.0	513.4034576893173	614.7803140972459	0.0	520.7880634460059	599.7826371226162	0.0	553.0809546081524	479.5744410740156	0.0	546.094960921195	545.6122114434386	0.0	536.4763426717838	611.3134703097551	0.0	530.6179775609252	630.5626566332043	0.0	538.7317779642045	630.0347304955268	0.0	535.0630006811067	620.029524734655	0.0	544.391375345825	391.788583502594	0.0	547.2749826372973	348.882885810243	0.0	546.193513393622	380.831718593906	0.0	515.4906527902332	396.5555167928652	0.0	504.3544580127877	444.33188731430295	0.0	498.4757593362825	487.0682427500934	0.0	572.5276778678799	399.5793413266623	0.0	579.1831703598782	448.473826629557	0.0	582.3170682660012	490.5361644213267	0.0
822	29.370603261937514	539.1170553775767	478.4498117435227	0.0	524.5392613711241	478.93986462050003	0.0	525.0889756625975	541.9536421219535	0.0	519.1911907625438	596.5896708252251	0.0	520.3340666360616	621.3184937290434	0.0	512.097462046186	618.9685661396642	0.0	519.2419697572574	605.2288282540202	0.0	553.2413977356174	479.74010659632046	0.0	547.2458927632503	546.65603812996	0.0	536.8597396675839	611.2728924122235	0.0	530.3171398326668	630.2495865112485	0.0	538.3897940967335	630.0172030676015	0.0	535.6652503682171	619.7042865686552	0.0	544.6447946554656	390.69772780397324	0.0	548.1169135981869	348.3689618782417	0.0	546.3805874902447	380.35739738900577	0.0	515.8587635126045	395.61032337376935	0.0	504.4844941255448	443.62050895890656	0.0	498.4656077273294	486.4653039582194	0.0	572.9724339527245	399.18245842221523	0.0	579.68055872865	447.72648815743537	0.0	582.2646026983741	490.0352210898141	0.0
823	29.406333922840112	538.9968998318157	479.10113590311147	0.0	524.8960293115698	479.16805205089923	0.0	524.7254283092691	544.0370231570964	0.0	517.6633443565266	601.6795028070388	0.0	518.8143185275197	624.8646536534422	0.0	510.65426400018384	623.0237625282783	0.0	517.4289859564107	611.0791017122714	0.0	553.4923728548631	480.2679913302174	0.0	547.9159284032066	548.4066725612998	0.0	536.9454125633081	611.0778343362738	0.0	530.3945885018045	630.0388066507705	0.0	538.3704499245371	629.9883653683862	0.0	535.9258946199262	619.5820135579314	0.0	544.736466504862	390.38128614530666	0.0	548.5688699553659	347.1074244225964	0.0	546.4523833245155	380.4895570052792	0.0	516.2612815742607	395.1965658205643	0.0	504.5658178632619	443.2031235095873	0.0	498.44906004032885	486.27840709202115	0.0	573.3555335320782	399.08123985515346	0.0	580.4047424490658	447.69531371921573	0.0	582.079223768841	490.18096821830034	0.0
824	29.442064583742713	539.062759053828	480.1198014406436	0.0	524.9079679731713	480.2455013243672	0.0	523.8648669016833	545.6888315236179	0.0	516.4185326184686	606.8357650488704	0.0	517.6391780881388	628.4972858165856	0.0	509.6017107629179	627.1670509847016	0.0	516.0526266341384	616.7428791405865	0.0	553.6781408675521	481.66354313207603	0.0	547.9308211085754	550.3278523149177	0.0	536.8202415990606	610.749123219832	0.0	530.5188360109099	629.9211555015971	0.0	538.4897159203063	629.713403525936	0.0	535.9440368664395	619.2607563458945	0.0	544.7282055590273	390.215481472886	0.0	548.3813209463492	345.2559443004426	0.0	546.1894374182283	380.3983369252569	0.0	516.4321870915539	395.3744211139488	0.0	504.6082404044628	443.1635453926479	0.0	498.5122756840318	486.4746980334214	0.0	573.8128801049392	399.1085814982477	0.0	581.0108803943823	448.14407583354387	0.0	581.8312462025114	490.5678399074941	0.0
825	29.477795244645314	539.4497698642975	481.27590632677163	0.0	524.846451211855	482.0354027269215	0.0	522.958797635703	547.5120805155391	0.0	516.0558445672463	611.0465442549066	0.0	517.0958776744446	631.871177609404	0.0	509.3467813677057	630.7162437887968	0.0	515.8039987827495	621.035461988949	0.0	553.7724639868081	483.7218614626136	0.0	547.7076401001002	551.5570951426744	0.0	536.6133951408204	610.4639440361117	0.0	530.3175236040313	629.7457045265311	0.0	538.3253855628404	629.3306353436968	0.0	535.9612600763585	618.7889172251347	0.0	544.7290725047073	389.741892973626	0.0	547.8805392812158	344.0408958837247	0.0	545.7532802152596	379.47725044478085	0.0	516.3499019766285	395.89232998856085	0.0	504.65694347383095	443.5807696204621	0.0	498.7787526617024	486.9380360435763	0.0	574.2063792274656	399.4242365587421	0.0	581.151034356626	448.9051774790122	0.0	581.5533316623099	491.0684107244505	0.0
826	29.513525905547915	539.6564414517337	482.140678053038	0.0	524.6876695834737	483.48358109950965	0.0	522.2262482581565	548.7658127034393	0.0	516.7699973296416	613.250697373116	0.0	516.8217070402022	633.825215022544	0.0	509.39685397635355	632.4660107795854	0.0	516.774608225735	623.6575068876998	0.0	553.9124047229426	485.2805046168678	0.0	547.6613139980456	552.0593356778154	0.0	536.389174546958	610.2691704995899	0.0	529.9016833145685	629.6106488984985	0.0	537.8503436303033	629.2990935989014	0.0	535.950720855732	618.9881352963935	0.0	544.7823221590468	389.9931037766424	0.0	547.4245114131752	344.2396872527805	0.0	545.5527272941157	378.5523047621836	0.0	516.232125076936	396.77375419797295	0.0	504.77493990374285	444.58283516674425	0.0	499.2496010032483	487.8639473909853	0.0	574.2708015013127	400.156782619572	0.0	580.9567332214899	450.1736861404522	0.0	581.2659499863571	491.90280761106203	0.0
827	29.549256566450516	539.3232976885923	483.05772721623214	0.0	524.2784077852809	484.3403452893507	0.0	521.7367451914181	549.044927302093	0.0	518.4485991549593	613.7224778938827	0.0	516.8338428541571	634.0075425019799	0.0	509.7003973759567	632.6848003935748	0.0	518.7043066194547	625.6221588982103	0.0	554.1042414528393	486.122315183183	0.0	547.6819969983862	552.5637753890044	0.0	536.3306395617423	610.3159227317846	0.0	529.6439901689978	629.8538609256975	0.0	537.3510898571818	630.0125871335484	0.0	535.8332906666757	620.3685609134567	0.0	544.7707674866251	391.66429621947015	0.0	547.0861482235451	345.2215390800081	0.0	545.5290088263099	378.5553602165751	0.0	516.0522163391087	398.253058065369	0.0	504.95473823047223	446.1467129410333	0.0	499.7267322461988	489.55407607577564	0.0	573.9762297176225	401.2260353522322	0.0	580.726793289244	451.9086518614531	0.0	580.9441934005303	493.1338442860552	0.0
828	29.584987227353114	538.8182209895486	484.5385957733661	0.0	523.8246706554909	485.68844473448286	0.0	521.713555735008	549.5986102616323	0.0	520.9570509821292	613.9528067438089	0.0	517.720656824482	633.7498010608433	0.0	511.23473932768206	633.0133873531456	0.0	521.3114649657914	627.6838427165819	0.0	554.2013155710478	487.3573523418789	0.0	547.3841932908673	553.466705084062	0.0	536.4842141992956	610.9111098516692	0.0	529.5383452619703	630.4231982473285	0.0	536.9037097722597	631.2934664608217	0.0	535.8746128133482	622.2240172906073	0.0	544.5118156179535	393.2674239279953	0.0	546.6546071840966	345.8379531054619	0.0	545.0703694685184	378.9719500869229	0.0	515.6601157259194	399.8588242484277	0.0	505.00763947776767	447.8175505839041	0.0	500.02198184524445	491.75849467868846	0.0	573.50822472954	402.3730710782208	0.0	580.5074709946605	453.518766723802	0.0	580.6278145508742	494.49014556572314	0.0
829	29.620717888255715	538.631861542974	486.1554477649356	0.0	523.5576290469462	487.7644015867592	0.0	522.4781355001764	550.9504479243944	0.0	523.9408648962526	615.1494880164045	0.0	519.7289632455697	634.8302274124032	0.0	514.3471555638943	634.5182766041085	0.0	524.1828339375271	629.6073930636719	0.0	554.1321089476247	489.1818092171861	0.0	546.7016780298441	554.3938297050627	0.0	536.6676573553833	611.8870916544254	0.0	529.491952752374	631.0135460827577	0.0	536.5947627937438	632.5863732379103	0.0	536.6333819909988	623.4638327706562	0.0	544.0210413724908	393.5868957741534	0.0	545.8670127734218	345.8274073909	0.0	543.97461496819	379.1885930215336	0.0	515.1627407267822	400.9198030087792	0.0	504.72665030859633	449.07495460097414	0.0	500.1430827875647	493.6730999312531	0.0	572.9679045931133	403.3074753718085	0.0	580.2987292231082	454.5258811781437	0.0	580.4577650429968	495.7468639946971	0.0
